
        <svg xmlns="http://www.w3.org/2000/svg" xmlns:xlink="http://www.w3.org/1999/xlink" version="1.1" width="3200" height="999.7871547523977" viewBox="0 0 3200 999.7871547523977">
			
			<g transform="scale(10) translate(10, 10)">
				<defs id="SvgjsDefs1364"/><g id="SvgjsG1365" featureKey="symbolFeature-0" transform="matrix(1.290083343063109,0,0,1.290083343063109,-24.511583518199068,-24.51803531287206)" fill="#fff"><title xmlns="http://www.w3.org/2000/svg">Artboard 15</title><path xmlns="http://www.w3.org/2000/svg" d="M70,59a11,11,0,0,0-10.36,7.33L59.4,67H28a3,3,0,0,1-3-3V56a3,3,0,0,1,3-3h5.4l.24.67a11,11,0,1,0,14-14L47,39.4V36a3,3,0,0,1,3-3h9.4l.24.67a11,11,0,1,0,0-7.33L59.4,27H50a9,9,0,0,0-9,9v3.4l-.67.24a11,11,0,0,0-6.69,6.69L33.4,47H28a9,9,0,0,0-9,9v8a9,9,0,0,0,9,9H59.4l.24.67A11,11,0,1,0,70,59Zm0-34a5,5,0,1,1-5,5A5,5,0,0,1,70,25ZM44,45a5,5,0,1,1-5,5A5,5,0,0,1,44,45ZM70,75a5,5,0,1,1,5-5A5,5,0,0,1,70,75Z"/></g><g id="SvgjsG1366" featureKey="nameFeature-0" transform="matrix(2.2903123641693113,0,0,2.2903123641693113,98.65719119063584,-18.971865164219984)" fill="#fff"><path d="M22.539 40 l-2.0508 -5.8203 l-11.855 0 l-2.0508 5.8203 l-5.9961 0 l10.391 -28.223 l7.168 0 l10.391 28.223 l-5.9961 0 z M10.352 29.277 l8.418 0 l-4.1992 -11.973 z M32.77339375 40 l0 -28.223 l5.8594 0 l0 28.223 l-5.8594 0 z M57.656625 11.777000000000001 c5.5273 0 8.9648 4.1016 8.9648 9.1211 c0 5.1367 -3.4375 8.9844 -8.9648 8.9844 l-5.8789 0 l0 10.117 l-5.8594 0 l0 -28.223 l11.738 0 z M56.679625 24.98 c2.9297 0 4.2969 -1.6211 4.2969 -4.1602 c0 -2.4414 -1.3672 -4.1406 -4.2969 -4.1406 l-4.9023 0 l0 8.3008 l4.9023 0 z M87.910625 16.934 l-10.469 0 l0 6.4063 l9.2773 0 l0 5.0977 l-9.2773 0 l0 6.3867 l10.469 0 l0 5.1758 l-16.367 0 l0 -28.223 l16.367 0 l0 5.1563 z"/></g>
			</g>
		</svg>
	